ffmpeg started on 2025-05-12 at 20:40:45
Report written to "D:\Convert\FFMetrics\reports\ssim_report-6.txt"
Log level: 32
Command line:
ffmpeg -hide_banner -nostdin -i "G:\\\xc0\xed\xe8\xec\xe5\\\xce\xed\xe3\xee\xe8\xed\xe3\xe8\\!_35_\xcb\xe5\xf2\xee_2024\\DreamCast-1\\\xcf\xf0\xe8\xea\xeb\xfe\xf7\xe5\xed\xe8\xff \xe2 \xe4\xf0\xf3\xe3\xee\xec \xec\xe8\xf0\xe5 - \xc2\xee\xf1\xef\xe8\xf2\xfb\xe2\xe0\xf2\xfc \xe4\xe5\xf2\xe5\xe9 \xe1\xf3\xe4\xf3\xf7\xe8 \xe0\xe2\xe0\xed\xf2\xfe\xf0\xe8\xf1\xf2\xee\xec\\[DC] Iseyuru - 03_Telegram_HEVC.mkv" -i "G:\\\xc0\xed\xe8\xec\xe5\\\xce\xed\xe3\xee\xe8\xed\xe3\xe8\\!_35_\xcb\xe5\xf2\xee_2024\\DreamCast-1\\\xcf\xf0\xe8\xea\xeb\xfe\xf7\xe5\xed\xe8\xff \xe2 \xe4\xf0\xf3\xe3\xee\xec \xec\xe8\xf0\xe5 - \xc2\xee\xf1\xef\xe8\xf2\xfb\xe2\xe0\xf2\xfc \xe4\xe5\xf2\xe5\xe9 \xe1\xf3\xe4\xf3\xf7\xe8 \xe0\xe2\xe0\xed\xf2\xfe\xf0\xe8\xf1\xf2\xee\xec\\[DC] Iseyuru - 03_Telegram.mp4" -lavfi "[0:v]settb=AVTB,setpts=PTS-STARTPTS,format=pix_fmts=yuv420p10,fps=24000/1001,scale=1920:1080:flags=bicubic[main];[1:v]settb=AVTB,setpts=PTS-STARTPTS,format=pix_fmts=yuv420p,fps=24000/1001,scale=1920:1080:flags=bicubic[ref];[main][ref]ssim=eof_action=endall:stats_file='D\\:/Convert/FFMetrics/logs/ssim_logfile-6.txt'" -f null -
Input #0, matroska,webm, from 'G:\Аниме\Онгоинги\!_35_Лето_2024\DreamCast-1\Приключения в другом мире - Воспитывать детей будучи авантюристом\[DC] Iseyuru - 03_Telegram_HEVC.mkv':
  Metadata:
    COMPATIBLE_BRANDS: isomiso2avc1mp41
    MAJOR_BRAND     : isom
    MINOR_VERSION   : 512
    ENCODER         : Lavf61.7.100
  Duration: 00:23:56.67, start: -0.021000, bitrate: 1129 kb/s
  Stream #0:0: Video: hevc (Main 10), yuv420p10le(tv, bt709, progressive), 1920x1080 [SAR 1:1 DAR 16:9], 23.98 fps, 23.98 tbr, 1k tbn (default)
      Metadata:
        HANDLER_NAME    : VideoHandler
        VENDOR_ID       : [0][0][0][0]
        ENCODER         : Lavc61.19.100 libx265
        BPS             : 931747
        DURATION        : 00:23:56.559708333
        NUMBER_OF_FRAMES: 34443
        NUMBER_OF_BYTES : 167313804
        _STATISTICS_WRITING_APP: mkvpropedit v66.0.0 ('Josie') 64-bit
        _STATISTICS_WRITING_DATE_UTC: 2025-05-10 12:53:06
        _STATISTICS_TAGS: BPS DURATION NUMBER_OF_FRAMES NUMBER_OF_BYTES
  Stream #0:1: Audio: aac (LC), 48000 Hz, stereo, fltp (default)
      Metadata:
        HANDLER_NAME    : SoundHandler
        VENDOR_ID       : [0][0][0][0]
        ENCODER         : Lavc61.19.100 aac
        BPS             : 193571
        DURATION        : 00:23:56.672000000
        NUMBER_OF_FRAMES: 67345
        NUMBER_OF_BYTES : 34762337
        _STATISTICS_WRITING_APP: mkvpropedit v66.0.0 ('Josie') 64-bit
        _STATISTICS_WRITING_DATE_UTC: 2025-05-10 12:53:06
        _STATISTICS_TAGS: BPS DURATION NUMBER_OF_FRAMES NUMBER_OF_BYTES
Input #1, mov,mp4,m4a,3gp,3g2,mj2, from 'G:\Аниме\Онгоинги\!_35_Лето_2024\DreamCast-1\Приключения в другом мире - Воспитывать детей будучи авантюристом\[DC] Iseyuru - 03_Telegram.mp4':
  Metadata:
    major_brand     : isom
    minor_version   : 512
    compatible_brands: isomiso2avc1mp41
    encoder         : Lavf61.1.100
  Duration: 00:23:56.63, start: 0.000000, bitrate: 3679 kb/s
  Stream #1:0[0x1](und): Video: h264 (High) (avc1 / 0x31637661), yuv420p(tv, bt709, progressive), 1920x1080 [SAR 1:1 DAR 16:9], 3532 kb/s, 23.98 fps, 23.98 tbr, 24k tbn (default)
      Metadata:
        handler_name    : VideoHandler
        vendor_id       : [0][0][0][0]
        encoder         : Lavc61.3.100 h264_qsv
  Stream #1:1[0x2](und): Audio: aac (HE-AACv2) (mp4a / 0x6134706D), 48000 Hz, stereo, fltp, 144 kb/s (default)
      Metadata:
        handler_name    : SoundHandler
        vendor_id       : [0][0][0][0]
Stream mapping:
  Stream #0:0 (hevc) -> settb:default
  Stream #1:0 (h264) -> settb:default
  ssim:default -> Stream #0:0 (wrapped_avframe)
  Stream #0:1 -> #0:1 (aac (native) -> pcm_s16le (native))
Output #0, null, to 'pipe:':
  Metadata:
    COMPATIBLE_BRANDS: isomiso2avc1mp41
    MAJOR_BRAND     : isom
    MINOR_VERSION   : 512
    encoder         : Lavf61.7.100
  Stream #0:0: Video: wrapped_avframe, yuv420p10le(tv, bt709, progressive), 1920x1080 [SAR 1:1 DAR 16:9], q=2-31, 200 kb/s, 23.98 fps, 23.98 tbn
      Metadata:
        encoder         : Lavc61.19.100 wrapped_avframe
  Stream #0:1: Audio: pcm_s16le, 48000 Hz, stereo, s16, 1536 kb/s (default)
      Metadata:
        HANDLER_NAME    : SoundHandler
        VENDOR_ID       : [0][0][0][0]
        _STATISTICS_TAGS: BPS DURATION NUMBER_OF_FRAMES NUMBER_OF_BYTES
        BPS             : 193571
        DURATION        : 00:23:56.672000000
        NUMBER_OF_FRAMES: 67345
        NUMBER_OF_BYTES : 34762337
        _STATISTICS_WRITING_APP: mkvpropedit v66.0.0 ('Josie') 64-bit
        _STATISTICS_WRITING_DATE_UTC: 2025-05-10 12:53:06
        encoder         : Lavc61.19.100 pcm_s16le
frame=  170 fps=0.0 q=-0.0 size=N/A time=00:00:07.09 bitrate=N/A speed=13.8x    frame=  404 fps=390 q=-0.0 size=N/A time=00:00:16.85 bitrate=N/A speed=16.3x    frame=  643 fps=414 q=-0.0 size=N/A time=00:00:26.81 bitrate=N/A speed=17.3x    frame=  893 fps=434 q=-0.0 size=N/A time=00:00:37.24 bitrate=N/A speed=18.1x    frame= 1140 fps=442 q=-0.0 size=N/A time=00:00:47.54 bitrate=N/A speed=18.4x    frame= 1390 fps=448 q=-0.0 size=N/A time=00:00:57.97 bitrate=N/A speed=18.7x    frame= 1650 fps=456 q=-0.0 size=N/A time=00:01:08.81 bitrate=N/A speed=  19x    frame= 1908 fps=461 q=-0.0 size=N/A time=00:01:19.57 bitrate=N/A speed=19.2x    frame= 2122 fps=455 q=-0.0 size=N/A time=00:01:28.50 bitrate=N/A speed=  19x    frame= 2356 fps=456 q=-0.0 size=N/A time=00:01:38.26 bitrate=N/A speed=  19x    frame= 2593 fps=455 q=-0.0 size=N/A time=00:01:48.14 bitrate=N/A speed=  19x    frame= 2809 fps=452 q=-0.0 size=N/A time=00:01:57.15 bitrate=N/A speed=18.9x    frame= 3044 fps=453 q=-0.0 size=N/A time=00:02:06.96 bitrate=N/A speed=18.9x    frame= 3240 fps=447 q=-0.0 size=N/A time=00:02:15.13 bitrate=N/A speed=18.7x    frame= 3455 fps=446 q=-0.0 size=N/A time=00:02:24.10 bitrate=N/A speed=18.6x    frame= 3635 fps=440 q=-0.0 size=N/A time=00:02:31.60 bitrate=N/A speed=18.3x    frame= 3785 fps=431 q=-0.0 size=N/A time=00:02:37.86 bitrate=N/A speed=  18x    frame= 3974 fps=427 q=-0.0 size=N/A time=00:02:45.74 bitrate=N/A speed=17.8x    frame= 4206 fps=429 q=-0.0 size=N/A time=00:02:55.42 bitrate=N/A speed=17.9x    frame= 4423 fps=428 q=-0.0 size=N/A time=00:03:04.47 bitrate=N/A speed=17.9x    frame= 4612 fps=425 q=-0.0 size=N/A time=00:03:12.35 bitrate=N/A speed=17.7x    frame= 4818 fps=424 q=-0.0 size=N/A time=00:03:20.95 bitrate=N/A speed=17.7x    frame= 5056 fps=426 q=-0.0 size=N/A time=00:03:30.87 bitrate=N/A speed=17.8x    frame= 5238 fps=423 q=-0.0 size=N/A time=00:03:38.46 bitrate=N/A speed=17.6x    frame= 5479 fps=424 q=-0.0 size=N/A time=00:03:48.51 bitrate=N/A speed=17.7x    frame= 5726 fps=426 q=-0.0 size=N/A time=00:03:58.82 bitrate=N/A speed=17.8x    frame= 5934 fps=426 q=-0.0 size=N/A time=00:04:07.49 bitrate=N/A speed=17.7x    frame= 6159 fps=426 q=-0.0 size=N/A time=00:04:16.88 bitrate=N/A speed=17.8x    frame= 6428 fps=429 q=-0.0 size=N/A time=00:04:28.10 bitrate=N/A speed=17.9x    frame= 6662 fps=430 q=-0.0 size=N/A time=00:04:37.86 bitrate=N/A speed=17.9x    frame= 6928 fps=433 q=-0.0 size=N/A time=00:04:48.95 bitrate=N/A speed=  18x    frame= 7162 fps=433 q=-0.0 size=N/A time=00:04:58.71 bitrate=N/A speed=18.1x    frame= 7407 fps=435 q=-0.0 size=N/A time=00:05:08.93 bitrate=N/A speed=18.1x    frame= 7654 fps=436 q=-0.0 size=N/A time=00:05:19.23 bitrate=N/A speed=18.2x    frame= 7898 fps=437 q=-0.0 size=N/A time=00:05:29.41 bitrate=N/A speed=18.2x    frame= 8168 fps=439 q=-0.0 size=N/A time=00:05:40.67 bitrate=N/A speed=18.3x    frame= 8416 fps=441 q=-0.0 size=N/A time=00:05:51.01 bitrate=N/A speed=18.4x    frame= 8649 fps=441 q=-0.0 size=N/A time=00:06:00.73 bitrate=N/A speed=18.4x    frame= 8877 fps=441 q=-0.0 size=N/A time=00:06:10.24 bitrate=N/A speed=18.4x    frame= 9147 fps=443 q=-0.0 size=N/A time=00:06:21.50 bitrate=N/A speed=18.5x    frame= 9401 fps=444 q=-0.0 size=N/A time=00:06:32.10 bitrate=N/A speed=18.5x    frame= 9658 fps=445 q=-0.0 size=N/A time=00:06:42.81 bitrate=N/A speed=18.6x    frame= 9920 fps=447 q=-0.0 size=N/A time=00:06:53.74 bitrate=N/A speed=18.6x    frame=10132 fps=446 q=-0.0 size=N/A time=00:07:02.58 bitrate=N/A speed=18.6x    frame=10357 fps=446 q=-0.0 size=N/A time=00:07:11.97 bitrate=N/A speed=18.6x    frame=10596 fps=446 q=-0.0 size=N/A time=00:07:21.94 bitrate=N/A speed=18.6x    frame=10805 fps=445 q=-0.0 size=N/A time=00:07:30.65 bitrate=N/A speed=18.6x    frame=11020 fps=445 q=-0.0 size=N/A time=00:07:39.62 bitrate=N/A speed=18.5x    frame=11252 fps=445 q=-0.0 size=N/A time=00:07:49.30 bitrate=N/A speed=18.5x    frame=11480 fps=445 q=-0.0 size=N/A time=00:07:58.81 bitrate=N/A speed=18.5x    frame=11715 fps=445 q=-0.0 size=N/A time=00:08:08.61 bitrate=N/A speed=18.6x    frame=11972 fps=446 q=-0.0 size=N/A time=00:08:19.33 bitrate=N/A speed=18.6x    frame=12242 fps=447 q=-0.0 size=N/A time=00:08:30.59 bitrate=N/A speed=18.7x    frame=12477 fps=447 q=-0.0 size=N/A time=00:08:40.39 bitrate=N/A speed=18.7x    frame=12694 fps=447 q=-0.0 size=N/A time=00:08:49.44 bitrate=N/A speed=18.7x    frame=12940 fps=448 q=-0.0 size=N/A time=00:08:59.70 bitrate=N/A speed=18.7x    frame=13181 fps=448 q=-0.0 size=N/A time=00:09:09.75 bitrate=N/A speed=18.7x    frame=13410 fps=448 q=-0.0 size=N/A time=00:09:19.30 bitrate=N/A speed=18.7x    frame=13655 fps=448 q=-0.0 size=N/A time=00:09:29.52 bitrate=N/A speed=18.7x    frame=13886 fps=448 q=-0.0 size=N/A time=00:09:39.16 bitrate=N/A speed=18.7x    frame=14111 fps=448 q=-0.0 size=N/A time=00:09:48.54 bitrate=N/A speed=18.7x    frame=14322 fps=448 q=-0.0 size=N/A time=00:09:57.34 bitrate=N/A speed=18.7x    frame=14590 fps=449 q=-0.0 size=N/A time=00:10:08.52 bitrate=N/A speed=18.7x    frame=14802 fps=448 q=-0.0 size=N/A time=00:10:17.36 bitrate=N/A speed=18.7x    frame=15053 fps=449 q=-0.0 size=N/A time=00:10:27.83 bitrate=N/A speed=18.7x    frame=15250 fps=448 q=-0.0 size=N/A time=00:10:36.05 bitrate=N/A speed=18.7x    frame=15431 fps=446 q=-0.0 size=N/A time=00:10:43.60 bitrate=N/A speed=18.6x    frame=15651 fps=446 q=-0.0 size=N/A time=00:10:52.77 bitrate=N/A speed=18.6x    frame=15851 fps=445 q=-0.0 size=N/A time=00:11:01.11 bitrate=N/A speed=18.6x    frame=16107 fps=446 q=-0.0 size=N/A time=00:11:11.79 bitrate=N/A speed=18.6x    frame=16315 fps=445 q=-0.0 size=N/A time=00:11:20.47 bitrate=N/A speed=18.6x    frame=16507 fps=444 q=-0.0 size=N/A time=00:11:28.47 bitrate=N/A speed=18.5x    frame=16751 fps=445 q=-0.0 size=N/A time=00:11:38.65 bitrate=N/A speed=18.5x    frame=16972 fps=444 q=-0.0 size=N/A time=00:11:47.87 bitrate=N/A speed=18.5x    frame=17169 fps=444 q=-0.0 size=N/A time=00:11:56.09 bitrate=N/A speed=18.5x    frame=17384 fps=443 q=-0.0 size=N/A time=00:12:05.05 bitrate=N/A speed=18.5x    frame=17628 fps=444 q=-0.0 size=N/A time=00:12:15.23 bitrate=N/A speed=18.5x    frame=17886 fps=444 q=-0.0 size=N/A time=00:12:25.99 bitrate=N/A speed=18.5x    frame=18123 fps=445 q=-0.0 size=N/A time=00:12:35.88 bitrate=N/A speed=18.5x    frame=18342 fps=444 q=-0.0 size=N/A time=00:12:45.01 bitrate=N/A speed=18.5x    frame=18587 fps=445 q=-0.0 size=N/A time=00:12:55.23 bitrate=N/A speed=18.5x    frame=18804 fps=444 q=-0.0 size=N/A time=00:13:04.28 bitrate=N/A speed=18.5x    frame=19042 fps=445 q=-0.0 size=N/A time=00:13:14.21 bitrate=N/A speed=18.5x    frame=19274 fps=445 q=-0.0 size=N/A time=00:13:23.88 bitrate=N/A speed=18.5x    frame=19460 fps=444 q=-0.0 size=N/A time=00:13:31.64 bitrate=N/A speed=18.5x    frame=19691 fps=444 q=-0.0 size=N/A time=00:13:41.27 bitrate=N/A speed=18.5x    frame=19890 fps=443 q=-0.0 size=N/A time=00:13:49.57 bitrate=N/A speed=18.5x    frame=20048 fps=442 q=-0.0 size=N/A time=00:13:56.16 bitrate=N/A speed=18.4x    frame=20289 fps=442 q=-0.0 size=N/A time=00:14:06.22 bitrate=N/A speed=18.4x    frame=20518 fps=442 q=-0.0 size=N/A time=00:14:15.77 bitrate=N/A speed=18.4x    frame=20738 fps=442 q=-0.0 size=N/A time=00:14:24.94 bitrate=N/A speed=18.4x    frame=20968 fps=442 q=-0.0 size=N/A time=00:14:34.54 bitrate=N/A speed=18.4x    frame=21194 fps=442 q=-0.0 size=N/A time=00:14:43.96 bitrate=N/A speed=18.4x    frame=21428 fps=442 q=-0.0 size=N/A time=00:14:53.72 bitrate=N/A speed=18.4x    frame=21634 fps=441 q=-0.0 size=N/A time=00:15:02.31 bitrate=N/A speed=18.4x    frame=21851 fps=441 q=-0.0 size=N/A time=00:15:11.36 bitrate=N/A speed=18.4x    frame=22099 fps=442 q=-0.0 size=N/A time=00:15:21.71 bitrate=N/A speed=18.4x    frame=22342 fps=442 q=-0.0 size=N/A time=00:15:31.84 bitrate=N/A speed=18.4x    frame=22574 fps=442 q=-0.0 size=N/A time=00:15:41.52 bitrate=N/A speed=18.4x    frame=22823 fps=442 q=-0.0 size=N/A time=00:15:51.90 bitrate=N/A speed=18.4x    frame=23063 fps=443 q=-0.0 size=N/A time=00:16:01.91 bitrate=N/A speed=18.5x    frame=23276 fps=442 q=-0.0 size=N/A time=00:16:10.80 bitrate=N/A speed=18.4x    frame=23517 fps=443 q=-0.0 size=N/A time=00:16:20.85 bitrate=N/A speed=18.5x    frame=23726 fps=442 q=-0.0 size=N/A time=00:16:29.57 bitrate=N/A speed=18.4x    frame=23885 fps=441 q=-0.0 size=N/A time=00:16:36.20 bitrate=N/A speed=18.4x    frame=24112 fps=441 q=-0.0 size=N/A time=00:16:45.67 bitrate=N/A speed=18.4x    frame=24354 fps=441 q=-0.0 size=N/A time=00:16:55.76 bitrate=N/A speed=18.4x    frame=24619 fps=442 q=-0.0 size=N/A time=00:17:06.81 bitrate=N/A speed=18.4x    frame=24880 fps=442 q=-0.0 size=N/A time=00:17:17.70 bitrate=N/A speed=18.5x    frame=25145 fps=443 q=-0.0 size=N/A time=00:17:28.75 bitrate=N/A speed=18.5x    frame=25410 fps=444 q=-0.0 size=N/A time=00:17:39.80 bitrate=N/A speed=18.5x    frame=25655 fps=444 q=-0.0 size=N/A time=00:17:50.02 bitrate=N/A speed=18.5x    frame=25880 fps=444 q=-0.0 size=N/A time=00:17:59.41 bitrate=N/A speed=18.5x    frame=26143 fps=445 q=-0.0 size=N/A time=00:18:10.38 bitrate=N/A speed=18.5x    frame=26383 fps=445 q=-0.0 size=N/A time=00:18:20.39 bitrate=N/A speed=18.5x    frame=26606 fps=445 q=-0.0 size=N/A time=00:18:29.69 bitrate=N/A speed=18.5x    frame=26861 fps=445 q=-0.0 size=N/A time=00:18:40.32 bitrate=N/A speed=18.6x    frame=27133 fps=446 q=-0.0 size=N/A time=00:18:51.67 bitrate=N/A speed=18.6x    frame=27376 fps=446 q=-0.0 size=N/A time=00:19:01.80 bitrate=N/A speed=18.6x    frame=27640 fps=446 q=-0.0 size=N/A time=00:19:12.81 bitrate=N/A speed=18.6x    frame=27875 fps=447 q=-0.0 size=N/A time=00:19:22.61 bitrate=N/A speed=18.6x    frame=28094 fps=446 q=-0.0 size=N/A time=00:19:31.75 bitrate=N/A speed=18.6x    frame=28337 fps=447 q=-0.0 size=N/A time=00:19:41.88 bitrate=N/A speed=18.6x    frame=28518 fps=446 q=-0.0 size=N/A time=00:19:49.43 bitrate=N/A speed=18.6x    frame=28701 fps=445 q=-0.0 size=N/A time=00:19:57.07 bitrate=N/A speed=18.6x    frame=28925 fps=445 q=-0.0 size=N/A time=00:20:06.41 bitrate=N/A speed=18.6x    frame=29100 fps=444 q=-0.0 size=N/A time=00:20:13.71 bitrate=N/A speed=18.5x    frame=29253 fps=443 q=-0.0 size=N/A time=00:20:20.09 bitrate=N/A speed=18.5x    frame=29452 fps=442 q=-0.0 size=N/A time=00:20:28.39 bitrate=N/A speed=18.5x    frame=29665 fps=442 q=-0.0 size=N/A time=00:20:37.27 bitrate=N/A speed=18.4x    frame=29877 fps=442 q=-0.0 size=N/A time=00:20:46.11 bitrate=N/A speed=18.4x    frame=30037 fps=441 q=-0.0 size=N/A time=00:20:52.79 bitrate=N/A speed=18.4x    frame=30244 fps=441 q=-0.0 size=N/A time=00:21:01.42 bitrate=N/A speed=18.4x    frame=30491 fps=441 q=-0.0 size=N/A time=00:21:11.72 bitrate=N/A speed=18.4x    frame=30758 fps=442 q=-0.0 size=N/A time=00:21:22.86 bitrate=N/A speed=18.4x    frame=31003 fps=442 q=-0.0 size=N/A time=00:21:33.08 bitrate=N/A speed=18.4x    frame=31276 fps=442 q=-0.0 size=N/A time=00:21:44.46 bitrate=N/A speed=18.5x    frame=31508 fps=443 q=-0.0 size=N/A time=00:21:54.14 bitrate=N/A speed=18.5x    frame=31766 fps=443 q=-0.0 size=N/A time=00:22:04.90 bitrate=N/A speed=18.5x    frame=31976 fps=443 q=-0.0 size=N/A time=00:22:13.66 bitrate=N/A speed=18.5x    frame=32202 fps=443 q=-0.0 size=N/A time=00:22:23.09 bitrate=N/A speed=18.5x    frame=32435 fps=443 q=-0.0 size=N/A time=00:22:32.80 bitrate=N/A speed=18.5x    frame=32670 fps=443 q=-0.0 size=N/A time=00:22:42.61 bitrate=N/A speed=18.5x    frame=32882 fps=443 q=-0.0 size=N/A time=00:22:51.45 bitrate=N/A speed=18.5x    frame=33090 fps=442 q=-0.0 size=N/A time=00:23:00.12 bitrate=N/A speed=18.4x    frame=33293 fps=442 q=-0.0 size=N/A time=00:23:08.59 bitrate=N/A speed=18.4x    frame=33493 fps=442 q=-0.0 size=N/A time=00:23:16.93 bitrate=N/A speed=18.4x    frame=33702 fps=441 q=-0.0 size=N/A time=00:23:25.65 bitrate=N/A speed=18.4x    frame=33876 fps=441 q=-0.0 size=N/A time=00:23:32.91 bitrate=N/A speed=18.4x    frame=34081 fps=440 q=-0.0 size=N/A time=00:23:41.46 bitrate=N/A speed=18.4x    frame=34272 fps=440 q=-0.0 size=N/A time=00:23:49.42 bitrate=N/A speed=18.3x    [Parsed_ssim_10 @ 0000014677106e80] SSIM Y:0.994926 (22.946919) U:0.991958 (20.946420) V:0.992786 (21.418468) All:0.994075 (22.273174)
[out#0/null @ 0000014674784e00] video:14800KiB audio:269380KiB subtitle:0KiB other streams:0KiB global headers:0KiB muxing overhead: unknown
frame=34443 fps=440 q=-0.0 Lsize=N/A time=00:23:56.56 bitrate=N/A speed=18.3x    
